# xmcd
#
# Track frame offsets:
#	150
#	22953
#	35329
#	49465
#	62893
#	79769
#	92897
#	115699
#	128077
#	142212
#	155638
#	172514
#	185641
#	205616
#
# Disc length: 3008 seconds
#
# Revision: 1
# Processed by: cddbd v1.5.2PL0 Copyright (c) Steve Scherf et al.
# Submitted via: audiograbber 1.83.01
#
DISCID=bc0bbe0e
DTITLE=Various Artist - CB20009 Hot Hits Vol. 9
DYEAR=1900
DGENRE=Karaoke
TTITLE0=Tim McGraw - Everywhere (Vocals)
TTITLE1=LeAnn Rimes - Cowboy's Sweetheart (Vocals)
TTITLE2=Raybon Brothers, The - The Way She's Looking (Vocals)
TTITLE3=River Road - Nickajack (Vocals)
TTITLE4=Kinley's, The - Please (Vocals)
TTITLE5=Bill Engvall and John Michael Montgomery - Warning Signs (Vocals)
TTITLE6=Tim McGraw - Everywhere
TTITLE7=LeAnn Rimes  - Cowboy's Sweetheart
TTITLE8=Raybon Brothers, The -  The Way She's Looking
TTITLE9=River Road - Nikajack
TTITLE10=Kinley's, The - Please
TTITLE11=Bill Engvall and John Michael Montgomery - Warning Signs
TTITLE12=Elton John - Candle In The Wind (Vocals)
TTITLE13=Elton John - Candle In The Wind
EXTD=
EXTT0=
EXTT1=
EXTT2=
EXTT3=
EXTT4=
EXTT5=
EXTT6=
EXTT7=
EXTT8=
EXTT9=
EXTT10=
EXTT11=
EXTT12=
EXTT13=
PLAYORDER=
